<?xml version="1.0" encoding="UTF-8"?>
<svg id="Layer_1" data-name="Layer 1" xmlns="http://www.w3.org/2000/svg" viewBox="0 0 864 864">
 <defs>
 <style>
 .cls-1 {
 fill: #2d2d2d;
 }
 </style>
 </defs>
 <path class="cls-1" d="M144,172.79c21.16.63,42.47-2.37,63.57-.84,9.05,1.47,10.37,9.58,14.58,16.42,41,85.89,82.15,171.72,122.04,258.13,29.52,59.63,58.1,119.57,84.83,180.46,12.58-18.74,21.73-39.05,31.94-59.1,40.68-78.99,79.47-158.99,118.36-238.93,26.26-50.89,51.42-102.36,75.47-154.41,21.68-1.58,43.42-1.53,65.2-1.05-10.53,10.47-29.26,17.79-26.21,35.47.37,152.78-.16,305.66.79,458.43,4,7.58,8.05,15.1,12.16,22.68-23.58.32-47,.16-70.47,1,5-7.31,11.53-14.84,14.21-23.37,2.63-22.84,1-46.26,1.37-69.2.21-118.83-.05-237.66-.74-356.49-2.63.32-5.26.58-7.89.89-28.1,59.73-59.21,118.04-87.78,177.51-45.73,86.99-89.62,174.83-131.2,263.87-1.32,5.42-9.79,12.79-12.42,4.47-58.57-124.67-118.73-249.61-178.56-373.76-13.42-29.21-30.58-56.47-43.94-85.62-.32,137.09.32,274.13.21,411.23-.11,17.47,3.68,34,7.05,51-10.58-.63-21.1-1.26-31.63-1.79,14.26-16.84,8.32-34.1,9.42-54.47.37-108.78-.26-217.56.11-326.29,1.95-34.05,3.58-71.73-3.74-105.25-3.26-15.79-14.21-22.79-26.73-31h0Z"/>
</svg>
